/* XPM */
static char *d9fd2e7e575e49b0fda95d04d077b3e4SBhHAhqeaJYtGp83[] = {
/* columns rows colors chars-per-pixel */
"64 64 45 1 ",
"  c #162131",
". c #27496D",
"X c #285075",
"o c #295278",
"O c #295579",
"+ c #2B567C",
"@ c #2B597F",
"# c #2C587F",
"$ c #2D5B81",
"% c #2E5C83",
"& c #305E84",
"* c #306086",
"= c #346389",
"- c #35648B",
"; c #36658C",
": c #38668C",
"> c #3B688E",
", c #3F6A91",
"< c #3F6D94",
"1 c #406B91",
"2 c #416D93",
"3 c #416E95",
"4 c #436F97",
"5 c #437096",
"6 c #437097",
"7 c #40809D",
"8 c #5195AF",
"9 c #5BA5BB",
"0 c #5EA7BC",
"q c #62ACBF",
"w c #62AFC1",
"e c #65B0C3",
"r c #71BAC8",
"t c #74BCCB",
"y c #82C2CD",
"u c #88C4CD",
"i c #8EC7CF",
"p c #93C9CF",
"a c #91C9D0",
"s c #97CBD0",
"d c #9BCCD1",
"f c #9ECED3",
"g c #A2CFD3",
"h c #A2CFD4",
"j c #A3D0D4",
/* pixels */
"jjjjjjjjjjjjjjjjjjjjjjjjjjjjjjjjjjjjjjjjjjjjjjjjjjjjjjjjjjjjjjjj",
"jjjjjjjjjjjjjjjjjjjjjjjjjjjjjjjjjjjjjjjjjjjjjjjjjjjjjjjjjjjjjjjj",
"jjjjjjjjjjjjjjjjjjjjjjjjjjjjjjjjjjjjjjjjjjjjjjjjjjjjjjjjjjjjjjjj",
"jjjjjjjjjjjjjjjjjjjjjjjjjjjjjjjjjjjjjjjjjjjjrhffjjjjjjjjjjjjjjjj",
"jjjjjjjjjjjjjjjjjjjjjjjjjjjjjjjjjjjjjjjjjjjjOifgjjjjjjjjjjjjjjjj",
"jjjjjjjjjjjOjjjjjjjjjjjjjjjjjjjjjjjjjjjjg         fjjjjjjjjjjjjj",
"jjjjjjjjjjjsOjjOjjjjjjjjjjjjjjjjjjjjjjj             gjjjjjjjjjjj",
"jjjjjjjjjjjjO7jOjjjjjjjjjjjjjjjjjjjjjgg   ;55553      jjjjjjjjjj",
"jjjjjjjjjjjjjOjOjjjjjjjjjjjjjjjjjjjjf   35555555553   fjjjjjjjjj",
"jjjjjjjjjjjjjjjajjjjjjjjjjjjjjjjjjjf    555555555532   djjjjjjjj",
"jjjjjjjjjjjjjjjjjjjjjjjjjjjjjjjjjj    55555555<355553   gjjOtjjj",
"jjjjjjjjjjjjjjjjjjjjjjjjjjjjjjjjj    5535555555555555    jjOjjjj",
"jjjjjjjjjjjjjjjjjjjjjjjjjjjjjjjjf  5555555535555555555     wjjjj",
"jjjjjjjjjjjjjjjjjjjjjjjjjjjjjjj   55555555555555555555O    jjjjj",
"jjjjjjjjjjjjjjjjjjjjjjjjjjjjjjg   55555555555555555555O    jOjjj",
"jjjjjjjjjjjjjjjjjjjjjjjjjjjjj   2555535555555555555555OO   jejjj",
"jjjjjjjjjjjjjjjjjjjjjjjjjjjjf   555553555555555555555,OO   jjjjj",
"jjjjjjjjjjjjjjjjjjjjjjjjjjj   ,5555555555555555555555-OO   jjjjj",
"jjjjjjjjjjjjjjjjjjjjjjjjjjd   55555555555555555555555=O#   jjjjj",
"jjjjjjjjjjjjjjjjjjjjjjjjj   3553555555555555555555555&OO   jjjjj",
"jjjjjjjjjjjjjjjjjjjjjjjjg   5555555555555555555553555$OO   jjjjj",
"jjjjjjjjjjjjjjjjjjjjjjj   155555555555555555555555555+OO   fjjjj",
"jjjjjjjjjjjjjjjjjjjjjjg   555555555555555555555555555+OO   fjjjj",
"jjjjjjjjjjjjjjjjjjjjj   25555555555555555555555555553OOO   gjjjj",
"jjjjjjOjjjjjjjjjjjjjj   55555555555555555555555555555OOO   gjjjj",
"jjjjjjOjjjjjjjjjjjjg  3555555555555555555555555555555OOO   gjjjj",
"jjjjjjOjujjjjjjjjj    5555555555555555555555555555555OOO   jjjjj",
"jjjjjtOsOjjjjjjjjj  355555553555555555555535555555555OOO   jjjjj",
"jjjjjddp8jjjjjjj    555555553555555555555355555555555OOO   gjjjj",
"jjjjjjjjjjjjjjjj   3555555555555555555555555555555555OOO   gjjjj",
"jjjjjjjjjjjjjjj   35555555555555555555555555555555555OOO   gjjjj",
"jjjjjjjjjjjjjjj   355<5555555555555555555555555555553OOO   jjjjj",
"jjjjjjjjjjjjjjj   5555555555555555553555555555555555-OOo  fjjjjj",
"jjjjjjjjjjjjjjj   5555555555555555555555555555555555OOO   jjjjjj",
"jjjjjjjjjjjjjjj   O55555553535555555555355555555555,OOO   jjjjjj",
"jjjjjjjj      j   O#5555555555555555553555555555555OOOo   jjjjjj",
"jjjjjjjj          OO:55555555555555555555555555555#OOO    jjjjjj",
"jjjjjj   5553     OOO35555555555555555555555555555OOOO   jjjjjjj",
"jjjjjj  5555553   OOOO555555555555555555555555555OOOOO   jjjjjjj",
"jjjjj   55555553,   OOO5555555535555555555555555=OOOOo   jjjjjjj",
"jjjj   3555555555     OO555555555555535555555555OOOOO   jjjjjjjj",
"jjjj  55555555555232    O5555535555555555555555OOOOOO  fjjjjjjjj",
"jjjj  ,55555555555553    %55553555555555555555>OOOOOo  jjjjjjjjj",
"jjj  o5555555555535555    =555555555555555555  OOOOO   jjjjjjjjj",
"jjj  O35555555555535555,    555555555555555    OOOOO   jjjjjjjjj",
"jjj  OO5555555555555555555  35555555555555    OOOOo   fjjjjjjjjj",
"jjj  OOO5555535555555535555   3555<5555     OOOOOOO   jjjjjjjjjj",
"jj   OOO+555555555555355555    3555555:O   .OOOOOOo   jjjjjjjjjj",
"jj   OOOO#55555555555555555552    OOOOOOOOOOOOOOoO    jjjjjjjjjj",
"jj   XOOOOO55555555555555555555   OOOOOOOOOOOOOOOO    jjjjjjjjjj",
"jjjj  OOOOO@555555555555555553555    OOOOOOOOOOOo    fjjjjjjjjjj",
"jjjj    OOOOOOOOOOOOOO#*:<55555555   oOOOOOOOOo    djjjjjjjjjjjj",
"jjjjjj  OOOOOOOOOOOOOOOOOOOOOOOOOo                dfjjjjjjjjjjjj",
"jjjjjjj  XOOOOOOOoOOOOOOOOOOOOOOX                 jjjjjjjjjjjjjj",
"jjjjjjj     XOOOOOoOOOOOOOOOOOXO                 jjjjjjjjjjjjjjj",
"jjjjjjjjj                           jjjjjjjjjjjjjjjjjjjjjjjjjjjj",
"jjjjjjjjjjj                       jjjjjjjjjjjjjjjjjjjj0Ojjjjjjjj",
"jjjjjjjjjjjjjjjjjjjjjjjjjjjjjjjjjjjjjjjjjjjjjjjjjjjjjjOdjjjjjjjj",
"jjjjjjjjjjjjjjjjjjjjjjjjjOjjjjjjjjjjjjjjjjjjjjjjjjsgjjOjjjjjjjjj",
"jjjjjjjjjjjjjjjjjjjjjjjjjOjjjjjjjjjjjjjjjjjjjjjjjjqOjqOjjjjjjjjj",
"jjjjjjjjjjjjjjjjjjjjjjjOaOjjjjjjjjjjjjjjjjjjjjjjjjj@yOjjjjjjjjjj",
"jjjjjjjjjjjjjjjjjjjjjjjOj9jjjjjjjjjjjjjjjjjjjjjjjjjjjjjjjjjjjjjj",
"jjjjjjjjjjjjjjjjjjjjjjjjjjjjjjjjjjjjjjjjjjjjjjjjjjjjjjjjjjjjjjjj",
"jjjjjjjjjjjjjjjjjjjjjjjjjjjjjjjjjjjjjjjjjjjjjjjjjjjjjjjjjjjjjjjj"
};
