/* XPM */
static char *e11ce17255644b26ba3eef8e442fe246ssl4k8KteFRTBrGM[] = {
/* columns rows colors chars-per-pixel */
"64 64 61 1 ",
"  c #24553D",
". c #26593F",
"X c #2A5C3D",
"o c #245740",
"O c #255A43",
"+ c #275E45",
"@ c #295579",
"# c #2A577C",
"$ c #2B5A7F",
"% c #8BB85A",
"& c #8DBA5A",
"* c #8FBB5D",
"= c #90BB5D",
"- c #92BC5D",
"; c #94BD5E",
": c #97BF60",
"> c #9DC263",
", c #A1C466",
"< c #A5C668",
"1 c #A8C86B",
"2 c #B1CD73",
"3 c #B4CE73",
"4 c #BAD179",
"5 c #BCD27A",
"6 c #BED37C",
"7 c #C2D57F",
"8 c #2E6385",
"9 c #316487",
"0 c #397292",
"q c #3B7694",
"w c #40809D",
"e c #4B8EA9",
"r c #4C91AB",
"t c #5195AF",
"y c #579EB6",
"u c #5BA5BB",
"i c #5EA7BC",
"p c #62ACBF",
"a c #62AFC1",
"s c #65B0C3",
"d c #68B4C5",
"f c #71BAC8",
"g c #74BCCB",
"h c #7FC1CD",
"j c #C2D580",
"k c #C5D783",
"l c #C5D784",
"z c #C6D884",
"x c #82C2CD",
"c c #88C4CD",
"v c #8CC6CF",
"b c #8FC8CF",
"n c #93C9CF",
"m c #91C9D0",
"M c #97CBD0",
"N c #9ACCD2",
"B c #9FCED1",
"V c #A0CED2",
"C c #A1CFD4",
"Z c #A3D0D3",
"A c #A3D0D4",
/* pixels */
"AAAAAAAAAAAAAAAAAAAAAAAAAAAAAAAAAAAAAAAAAAAAAAAAAAAAAAAAAAAAAAAA",
"AAAAAAAAAAAAAAAAAAAAAAAAAAAAAAAAAAAAAAAAAAAAAAAAAAAAAAAAAAAAAAAA",
"AAAAAAAAAAAAAAAAAAAAAAAAAAAAAAAAAAAAAAAAAAAAAAAAAAAAAAAAAAAAAAAA",
"AAAAAAAAAAAAAAAAAAAAAAAAAAAAAAAAAAAAAAAAAAAAfAAAAAAAAAAAAAAAAAAA",
"AAAAAAAAAAAAAAAAAAAAAAAAAAAAAAAAAAAAAAAAAAAA@bAAAAAAAAAAAAAAAAAA",
"AAAAAAAAAAA@AAAAAAAAAAAAAAAAAAAAAAAAAAAAAAAA@MAAAAAAAAAAAAAAAAAA",
"AAAAAAAAAAAM@AA@AAAAAAAAAAAAAAAAAAAAAAAAAAAA@AV@bAAAAAAAAAAAAAAA",
"AAAAAAAAAAAA@wA@AAAAAAAAAAAAAAAAAAAAAAAAAAAA@B@AAAAAAAAAAAAAAAAA",
"AAAAAAAAAAAAA@A@AAAAAAAAAAAAAAAAAAAAAAAAAAAAAAAAAAAAAAAAAAAAAAAA",
"AAAAAAAAAAAAAAAmAAAAAAAAAAAAAAAAAAAAAAAAAAAAAAAAAAAAAAAAAAAAAAAA",
"AAAAAAAAAAAAAAAAAAAAAAAAAAAAAAAAAAAAAAAAAAAAAAAAAAAAAAAAAAA@gAAA",
"AAAAAAAAAAAAAAAAAAAAAAAAAAAAAAAAAAAAAAAAAAAAAAAAAAAAAAAAAAA@AAAA",
"AAAAAAAAAAAAAAAAAAAAAAAAAAAAAAAAAAAAAAAAAAAAAAAAAAAAAAA@AA@aAAAA",
"AAAAAAAAAAAAAAAAAAAAAAAAAAA          AAAAAAAAAAAAAAAAAA#rB@AAAAA",
"AAAAAAAAAAAAAAAAAAAAAAAAAA            AAAAAAAAAAAAAAAAAAVAAA@AAA",
"AAAAAAAAAAAAAAAAAAAAAAAAAA  =kzzzzk=  AAAAAAAAAAAAAAAAAAAAAAsAAA",
"AAAAAAAAAAAAAAAAAAAAAAAAAA  *zzzzzz*  AAAAAAAAAAAAAAAAAAAAAAAAAA",
"AAAAAAAAAAAAAAAAAA   VAAAA  *2zzzz2*  AAAAV   AAAAAAAAAAAAAAAAAA",
"AAAAAAAAAAAAAAAA       VAAA  *&**&*  AAAV       AAAAAAAAAAAAAAAA",
"AAAAAAAAAAAAAAAA  lk-  AAA   %****%   AAA  -kl  AAAAAAAAAAAAAAAA",
"AAAAAAAAAAAAAAAA  klz*. AV     **     VA .*zlk  AAAAAAAAAAAAAAAA",
"AAAAAAAAAAAAAAA  7zkz*       &****&       *zkz7  AAAAAAAAAAAAAAA",
"AAAAAAAAAAAAAAA  zzzz**    *5zzzzzz5*    **zzzz  AAAAAAAAAAAAAAA",
"AAAAAAAAAAAAAA +lzzz**& &%&zzzzzzzzzz&%& &**zzzl+ AAAAAAAAAAAAAA",
"AAAAAA@AAAAAAA  lzzz**  **zzzkkkkkkzzz**  **zzzl  AAAAAAAAVAAAAA",
"AAAAAA@AAAAAAA  zzz>** &&jzz7      7zzj&& **>zzz  AAAAAAAANAAAAA",
"AAAAAA@AcAAAAA  zzz**=***zzk        kzz***=**zzz  AAAAAAAAAAAAAA",
"AAAAAg@M@AAAAA   ***% **2zk o BVVB o kz2** %***   AAAAAAAAAAAAAA",
"AAAAANNntAAAAA        &*zz   AAAAAA   zz*&        AAAAAAAAAAAAAA",
"AAAAAAAAAAAAAAAAAOo    ;zz  VAAAAAAV  zz;    oOAAAAAAAAAAAAAAAAA",
"AAAAAAAAAAAAAAAAAAAA  .jzz  AAAAAAAA  zzj.  AAAAAAAAAAAAAAAAAAAA",
"AAAAAAAAAAAAAAAAAAAA   4zz  AAAAAAAA  zz4   AAAAABAAAAAAAAAAAAAA",
"AAAAAAAAAAAAAAAAAA     1zz  VAAAAAAV  zz1     AAA9CAAAAAAAAAAAAA",
"AAAAAAAAAAAAAAAA      .=zz   AAAAAA   zz=.      A@dAAAAAAAAAAAAA",
"AAAAAAAAAAAAAA     &*% &7zz   VAAV   zz7& %*&     @AA@AAAAAAAAAA",
"AAAAAAAAAAAAAA  >*:z*&&&7zz5        5zz7&&&*z:*>  @Ay0BAAAAAAAAA",
"AAAAAAAAAAAAAA  *kzz*****kzzz      zzzk*****zzk*  @A@AAAAAAAAAAA",
"AAAAAAAAAAAAAA  kzzzj***.&7zzzzzzzzzz7&.***jzzzk  AAAAAAAAAAAAAA",
"AAAAAAAAAAAAAAZ Xzzzz**   %jkzzzzzzkj%   **zzzzX ZAAAAAAAAAAAAAA",
"AAAAAAAAAAAAAAA  zzzzz*&   &:zzzzzz:&   &*zzzzz  AAAAAAAAAAAAAAA",
"AAAAAAAAAAAAAAAA  zzzz3&     &****&     &3zzzz  AAAAAAAAAAAAAAAA",
"AAAAAAAAAAAAAAAA  lzzz*        **        *zzzl  AAAAAAAAAAAAAAAA",
"AAAAAAAAAAAAAAAAA  kl&   AA  *&**&*  AA   &lk  AAAAAAAAAAAAAAAAA",
"AAAAAAAAAAqvAAAAAA     AAAA  *,<<,*  AAAA     AAAAAAAAAAAAAAAAAA",
"AAAAAAAAAAe8AAAAAAA   AAAA  &6zzzz6&  AAAA   AAAAAAAAAAAAAAAAAAA",
"AAAAAAAAAAM@AAAAAAAAAAAAAA  *llzzll*  AAAAAAAAAAAAAAAAAAAAAAAAAA",
"AAAAAAAAAAA@AAAAAAAAAAAAAA  &zzzzzz&  AAAAAAAAAAAAAAAAAAAAAAAAAA",
"AAAAAAAAAAA@A@AAAAAAAAAAAA            AAAAAAAAAAAAAAAAAAAAAAAAAA",
"AAAAAAAAw@A@A@AAAAAAAAAAAAA          AAAAAAAAAAAAAAAAAAAAAAAAAAA",
"AAAAAAAAA#hAAmAAAAAAAAAAAAABVVVAAVVVBAAAAAAAAAAAAAAAAAAAAAAAAAAA",
"AAAAAAAAAAAAAAAAAAAAAAAAAAAAAAAAAAAAAAAAAAAAAAAAAAAAAAAAAAAAAAAA",
"AAAAAAAAAAAAAAAAAAAAAAAAAAAAAAAAAAAAAAAAAAAAAAAAAAAAAAAAAAAAAAAA",
"AAAAAAAAAAAAAAAAAAAAAAAAAAAAAAAAAAAAAAAAAAAAAAAAAAAAAAAAAAAAAAAA",
"AAAAAAAAAAAAAAAAAAAAAAAAAAAAAAAAAAAAAAAAAAAAAAAAAAAAAAAAAAAAAAAA",
"AAAAAAAAAAAAAAAAAAAAAAAAAAAAAAAAAAAAAAAAAAAAAAAAAAAAAAAAAAAAAAAA",
"AAAAAAAAAAAAAAAAAAAAAAAAAAAAAAAAAAAAAAAAAAAAAAAAAAAAAAAAAAAAAAAA",
"AAAAAAAAAAAAAAAAAAAAAAAAAAAAAAAAAAAAAAAAAAAAAAAAAAAAAAi@AAAAAAAA",
"AAAAAAAAAAAAAAAAAAAAAAAAAAAAAAAAAAAAAAAAAAAAAAAAAAAAAA@NAAAAAAAA",
"AAAAAAAAAAAAAAAAAAAAAAAAA@AAAAAAAAAAAAAAAAAAAAAAAAMVAA@AAAAAAAAA",
"AAAAAAAAAAAAAAAAAAAAAAAAA@AAAAAAAAAAAAAAAAAAAAAAAAp@Ap@AAAAAAAAA",
"AAAAAAAAAAAAAAAAAAAAAAA@m@AAAAAAAAAAAAAAAAAAAAAAAAA$x@AAAAAAAAAA",
"AAAAAAAAAAAAAAAAAAAAAAA@AuAAAAAAAAAAAAAAAAAAAAAAAAAAAAAAAAAAAAAA",
"AAAAAAAAAAAAAAAAAAAAAAAAAAAAAAAAAAAAAAAAAAAAAAAAAAAAAAAAAAAAAAAA",
"AAAAAAAAAAAAAAAAAAAAAAAAAAAAAAAAAAAAAAAAAAAAAAAAAAAAAAAAAAAAAAAA"
};
