/* XPM */
static char *_108118130cc4ce7f8aa1a10db48d452cyf5qd7i02kLzxji[] = {
/* columns rows colors chars-per-pixel */
"64 64 46 1 ",
"  c #481B2B",
". c #491B2E",
"X c #4C1C32",
"o c #295579",
"O c #2A577C",
"+ c #2B5A7F",
"@ c #933569",
"# c #9B3A6F",
"$ c #9E3B72",
"% c #9D3C73",
"& c #9F3C74",
"* c #A23F77",
"= c #A23F78",
"- c #2C5E81",
"; c #2E6385",
": c #3B7694",
"> c #40809D",
", c #4B8EA9",
"< c #4C90AA",
"1 c #5195AF",
"2 c #539AB2",
"3 c #5BA5BB",
"4 c #5EA7BC",
"5 c #62ACBF",
"6 c #62AFC1",
"7 c #65B0C3",
"8 c #71BAC8",
"9 c #74BCCB",
"0 c #7FC1CD",
"q c #82C2CD",
"w c #88C4CD",
"e c #8CC6CF",
"r c #8FC8CF",
"t c #93C9CF",
"y c #91C9D0",
"u c #97CBD0",
"i c #9ACCD2",
"p c #9CCDD2",
"a c #A1CFD3",
"s c #A3D0D4",
"d c #DED3D8",
"f c #DDDADD",
"g c #DEDCDF",
"h c #E0D8DB",
"j c #E3DCE0",
"k c #E6DEE2",
/* pixels */
"ssssssssssssssssssssssssssssssssssssssssssssssssssssssssssssssss",
"ssssssssssssssssssssssssssssssssssssssssssssssssssssssssssssssss",
"ssssssssssssssssssssssssssssssssssssssssssssssssssssssssssssssss",
"ssssssssssssssssssssssssssssssssssssssssssss8sssssssssssssssssss",
"ssssssssssssssssssssssssssssssssssssssssssssorssssssssssssssssss",
"sssssssssssossssssssssssssssssssssssssssssssoussssssssssssssssss",
"sssssssssssuossossssssssssssssssssssssssssssosaorsssssssssssssss",
"sssssssssssso>sossssssssssssssssssssssssssssoposssssssssssssssss",
"sssssssssssssosossssssssssssssssssssssssssssssssssssssssssssssss",
"sssssssssssssssyssssssssssssssssssssssssssssssssssssssssssssssss",
"ssssssssssssssssssssssssssssssssssssssssssssssssssssssssssso9sss",
"sssssssssssssssssssssssssssssssssssssssssssssssssssssssssssossss",
"sssssssssssssssssssssssssssssssssssssssssssssssssssssssosso6ssss",
"sssssssssssssssssssssssssssssssssssssssssssssssssssssssO<posssss",
"ssssssssssssssssssssssssssssssssssssssssssssssssssssssssasssosss",
"ssssssssssssssssssssssssssssssssssssssssssssssssssssssssssss7sss",
"sssssssssssssssssssssssssss.        .assssssssssssssssssssssssss",
"sssssssssssssssssssssssssa..      . . .sssssssssssssssssssssssss",
"sssssssssssssssssssssss     kkkkkkkk     sssssssssssssssssssssss",
"sssssssssssssssssssss    kdkkkkkkkkkkkk    sssssssssssssssssssss",
"sssssssssssssssssss .  kkkkkkkkkkkkkkkkkk  . sssssssssssssssssss",
"sssssssssssssssssss  kkkkkkkkkkkkkkkkkkkkkk  sssssssssssssssssss",
"ssssssssssssssssss  kkkkkkkkkkkkkkkkkkkkkkkk  ssssssssssssssssss",
"ssssssssssssssssp .kkkkkjkkkkkkkkkkkkkkjkkkkk. pssssssssssssssss",
"ssssssosssssssss  kkkkkkkkkkkkkkkkkkkkkkkkkkkk  ssssssssssasssss",
"ssssssosssssssss .kkkkkkkkkkkkkkkkkkkkkkkkkkkk. ssssssssssisssss",
"ssssssoswssssss  kkkkkkkkkkkkkkkkkkkkkkkkkkkkkk  issssssssssssss",
"sssss9ouosssss  kkkkkkkkkkkkkkkkkkkkkkkkkkkkkkkk  ssssssssssssss",
"sssssiit1sssss  kkkkkkkkkkkkkkkkkkkkkkkkkkkkkkkk  asssssssssssss",
"sssssssssss     kkkkkkkkkkkkkkkkkkkkkkkkkkkkkkkk     assssssssss",
"sssssssss.      kkkkkkkkkkkkkkkkkkkkkkkkkkkkkkkk       pssssssss",
"sssssss    .%** kkkkkkkkkkkkkkkkkkkkkkkkkkkkkkkk **%.    upsssss",
"sssss   .&*==== fkkkkkkkkkkkkkkkkkkkkkkkkkkkkkkg ====*&.   pssss",
"sssss  ========    kkhkkkkkkkkkkkkkkkkkkkkhkk    ========  pssss",
"sssss  ========#@                              @#========  pssss",
"sssss  ==========*=*********========*********=*==========  pssss",
"sssss    $*==========================================*%    assss",
"sssssss   .                                          ..  wasssss",
"sssssssss.                                            .sssssssss",
"sssssssssssssssss                              spassssssssssssss",
"sssssssssssssssss      pssssppppapppppppp      sssssssssssssssss",
"ssssssssssssssssss    asssssssssssssssssss    ssssssssssssssssss",
"sssssssssssssssssss  asssssssssssss-sssssss  sssssssssssssssssss",
"ssssssssss:essssss   ssssssssssssssosssssss   ssssssssssssssssss",
"ssssssssss,;ssssss  ssssssssssssow<ossssssss  ssssssssssssssssss",
"ssssssssssuosssss   ssssssssssss2u-ssussssss   ssassssssssssssss",
"sssssssssssosssss  ssssssssssssssssssssssssss  sssasssssssssssss",
"sssssssssssososs  ssssssssssssssssssssssssssss  ssssssssssssssss",
"ssssssss>osososs  ssssssssssssssssssssssssssss  sssassssssssssss",
"sssssssssO0ssys  ssssssssssssssssssssssssssssss  sssssssssssssss",
"ssssssssssssss   ssssssssssssssssssssssssssssss   ssssssssssssss",
"ssssssssssssss  ssssssssssssssssssssssssssssssss  ssssssssssssss",
"ssssssssssssss  ssssssssssssssssssssssssssssssss  ssssssssssssss",
"ssssssssss     XssssssssssssssssssssssssssssssssX     saasasssss",
"sssssssaas     ssssssssssssssssssssssssssssssssss     saasssssss",
"ssssssaass.    ssssssssssssssssssssssssssssssssss    .ssssssssss",
"sssssssssssaaassssssssssssssssssssssssssssssssssssaass4ossssssss",
"sssssssssssssassssssssssssssssssssssssssssssssssssasssoissssssss",
"sssssssssssssssssssssssssossssssssssssssssssssssssuassosssssssss",
"sssssssssssaassssssssssssossssssssssssssssssssssss5oa5osssssssss",
"ssssssssssasassssssssssoyosssssssssssssssssssssssss+qossssssssss",
"sssssssssssssssssssssssos3ssssssssssssssssssssssssssssssssssssss",
"ssssssssssssssssssssssssssssssssssssssssssssssssssssssssssssssss",
"ssssssssssssssssssssssssssssssssssssssssssssssssssssssssssssssss"
};
