/* XPM */
static char *_5d986cfa14f4ad6e8a5fb5a5853baf1yOgL73uKYIjwHhT3[] = {
/* columns rows colors chars-per-pixel */
"64 64 66 1 ",
"  c #481B2B",
". c #491B2D",
"X c #4C1C32",
"o c #295579",
"O c #2A577C",
"+ c #2B5A7F",
"@ c #527C47",
"# c #537E49",
"$ c #537F4C",
"% c #933569",
"& c #9B3A6F",
"* c #9E3B72",
"= c #9D3C73",
"- c #9F3C74",
"; c #A23F77",
": c #A23F78",
"> c #5A8249",
", c #5E864A",
"< c #61884C",
"1 c #69914F",
"2 c #6D9551",
"3 c #769E52",
"4 c #79A153",
"5 c #7DA553",
"6 c #80A854",
"7 c #82AC56",
"8 c #8CB359",
"9 c #95BA5D",
"0 c #B0CB6C",
"q c #B2CD6E",
"w c #B9D074",
"e c #BFD47B",
"r c #C0D373",
"t c #2C5E81",
"y c #2E6385",
"u c #3B7694",
"i c #40809D",
"p c #4B8EA9",
"a c #4C90AA",
"s c #5195AF",
"d c #539AB2",
"f c #5BA5BB",
"g c #5EA7BC",
"h c #62ACBF",
"j c #62AFC1",
"k c #65B0C3",
"l c #71BAC8",
"z c #74BCCB",
"x c #7FC1CD",
"c c #C5D781",
"v c #C5D785",
"b c #C6D884",
"n c #CCDB8B",
"m c #82C2CD",
"M c #88C4CD",
"N c #8CC6CF",
"B c #8FC8CF",
"V c #92C7C4",
"C c #93C9CF",
"Z c #9DCDCE",
"A c #91C9D0",
"S c #97CBD0",
"D c #9ACCD2",
"F c #9CCDD2",
"G c #A0CFD2",
"H c #A3D0D4",
/* pixels */
"HHHHHHHHHHHHHHHHHHHHHHHHHHHHHHHHHHHHHHHHHHHHHHHHHHHHHHHHHHHHHHHH",
"HHHHHHHHHHHHHHHHHHHHHHHHHHHHHHHHHHHHHHHHHHHHHHHHHHHHHHHHHHHHHHHH",
"HHHHHHHHHHHHHHHHHHHHHHHHHHHHHHHHHHHHHHHHHHHHHHHHHHHHHHHHHHHHHHHH",
"HHHHHHHHHHHHHHHHHHHHHHHHHHHHHHHHHHHHHHHHHHHHlHHHHHHHHHHHHHHHHHHH",
"HHHHHHHHHHHHHHHHHHHHHHH@6@HHHHHHHHHHHH@6@HHHoBHHHHHHHHHHHHHHHHHH",
"HHHHHHHHHHHoHHHHHHHHHHHwb0HHHHHHHHHHHH0bwHHHoSHHHHHHHHHHHHHHHHHH",
"HHHHHHHHHHHSoHHoHHHHHHH>bb@ZHHHHHHHHZ@bb>HHHoHGoBHHHHHHHHHHHHHHH",
"HHHHHHHHHHHHoiHoHHHHHHHH3bw2HHHHHHHH2wb3HHHHoFoHHHHHHHHHHHHHHHHH",
"HHHHHHHHHHHHHoHoHHHHHHHH@bbbHHHHHHHHbbb@HHHHHHHHHHHHHHHHHHHHHHHH",
"HHHHHHHHHHHH>>@AHHHHHHHHHqbbHHHHHHHHbbqHHHHHHHHHH@>>HHHHHHHHHHHH",
"HHHHHHHHHHHH5bb@HHHHHHHHH@1,GHHHHHHG,1@HHHHHHHHH@bb5HHHHHHHozHHH",
"HHHHHHHHHHHH@bbb@HHHHHHHHHHGHHHHHHHHGHHHHHHHHHH@bbb@HHHHHHHoHHHH",
"HHHHHHHHHHHHH4bbb@HHHHHHHHHHHHHHHHHHHHHHHHHHHH@bbb4HHHHoHHojHHHH",
"HHHHHHHHHHHHHHebbb#HHHHHHHHHHHHHHHHHHHHHHHHHH#bbbeHHHHHOaFoHHHHH",
"HHHHHHHHHHHHHHHqbvbHHHHHHHHHHHHHHHHHHHHHHHHHHbvbqHHHHHHHGHHHoHHH",
"HHHHHHHHHHHHHHHH@1@HHHHHHHHHHHHHHHHHHHHHHHHHH@1@HHHHHHHHHHHHkHHH",
"HHHHHHHHHHHHHHHHHHHHHHHHHHH.        .GHHHHHHHHHHHHHHHHHHHHHHHHHH",
"HHHHHHHHHHHHHHHHHHHHHHHHHG..      . . .HHHHHHHHHHHHHHHHHHHHHHHHH",
"HHHHHHHHHHHHHHHHHHHHHHH     bbbbbbbb     HHHHHHHHHHHHHHHHHHHHHHH",
"HHHHHH#8@VHHHHHHHHHHH    brbbbbbbbbbbbb    HHHHHHHHHHHV@8#HHHHHH",
"HHHHHH7bb9>GZHHHHHH .  bbbbbbbbbbbbbbbbbb  . HHHHHHZG>9bb7HHHHHH",
"HHHHHH#bbbb<$HHHHHH  bbbbbbbbbbbbbbbbbbbbbb  HHHHHH$>bbbb#HHHHHH",
"HHHHHHHH@@bbqHHHHH  bbbbbbbbbbbbbbbbbbbbbbbb  HHHHHqbb@@HHHHHHHH",
"HHHHHHHHHGwb3HHHF .bbbbbbbbbbbbbbbbbbbbbbbbbb. FHHH3bwGHHHHHHHHH",
"HHHHHHoHHHHHHHHH  bbbbbbbbbbbbbbbbbbbbbbbbbbbb  HHHHHHHHHHGHHHHH",
"HHHHHHoHHHHHHHHH .bbbbbbbbbbbbbbbbbbbbbbbbbbbb. HHHHHHHHHHDHHHHH",
"HHHHHHoHMHHHHHH  bbbbbbbbbbbbbbbbbbbbbbbbbbbbbb  DHHHHHHHHHHHHHH",
"HHHHHzoSoHHHHH  bbbbbbbbbbbbbbbbbbbbbbbbbbbbbbbb  HHHHHHHHHHHHHH",
"HHHHHDDCsHHHHH  bbbbbbbbbbbbbbbbbbbbbbbbbbbbbbbb  GHHHHHHHHHHHHH",
"HHHHHHHHHHH     bbbbbbbbbbbbbbbbbbbbbbbbbbbbbbbb     GHHHHHHHHHH",
"HHHHHHHHH.      bbbbbbbbbbbbbbbbbbbbbbbbbbbbbbbb       FHHHHHHHH",
"HHHHHHH    .=;; bbbbbbbbbbbbbbbbbbbbbbbbbbbbbbbb ;;=.    SFHHHHH",
"HHHHH   .-;:::: cbbbbbbbbbbbbbbbbbbbbbbbbbbbbbbb ::::;-.   FHHHH",
"HHHHH  ::::::::    bbnbbbvvbbbbbbbbbbvbbbbnbb    ::::::::  FHHHH",
"HHHHH  ::::::::&%                              %&::::::::  FHHHH",
"HHHHH  ::::::::::;:;;;;;;;;;::::::::;;;;;;;;;:;::::::::::  FHHHH",
"HHHHH    *;::::::::::::::::::::::::::::::::::::::::::;=    GHHHH",
"HHHHHHH   .                                          ..  MGHHHHH",
"HHHHHHHHH.                                            .HHHHHHHHH",
"HHHHHHHHHHHHHHHHH                              HFGHHHHHHHHHHHHHH",
"HHHHHHHHHHHHHHHHH      FHHHHFFFFGFFFFFFFF      HHHHHHHHHHHHHHHHH",
"HHHHHHHHHHHHHHHHHH    GHHHHHHHHHHHHHHHHHHH    HHHHHHHHHHHHHHHHHH",
"HHHHHHHHHHHHHHHHHHH  GHHHHHHHHHHHHHtHHHHHHH  HHHHHHHHHHHHHHHHHHH",
"HHHHHHHHHHuNHHHHHH   HHHHHHHHHHHHHHoHHHHHHH   HHHHHHHHHHHHHHHHHH",
"HHHHHHHHHHpyHHHHHH  HHHHHHHHHHHHoMaoHHHHHHHH  HHHHHHHHHHHHHHHHHH",
"HHHHHHHHHHSoHHHHH   HHHHHHHHHHHHdStHHSHHHHHH   HHGHHHHHHHHHHHHHH",
"HHHHHHHHHHHoHHHHH  HHHHHHHHHHHHHHHHHHHHHHHHHH  HHHGHHHHHHHHHHHHH",
"HHHHHHHHHHHoHoHH  HHHHHHHHHHHHHHHHHHHHHHHHHHHH  HHHHHHHHHHHHHHHH",
"HHHHHHHHioHoHoHH  HHHHHHHHHHHHHHHHHHHHHHHHHHHH  HHHGHHHHHHHHHHHH",
"HHHHHHHHHOxHHAH  HHHHHHHHHHHHHHHHHHHHHHHHHHHHHH  HHHHHHHHHHHHHHH",
"HHHHHHHHHHHHHH   HHHHHHHHHHHHHHHHHHHHHHHHHHHHHH   HHHHHHHHHHHHHH",
"HHHHHHHHHHHHHH  HHHHHHHHHHHHHHHHHHHHHHHHHHHHHHHH  HHHHHHHHHHHHHH",
"HHHHHHHHHHHHHH  HHHHHHHHHHHHHHHHHHHHHHHHHHHHHHHH  HHHHHHHHHHHHHH",
"HHHHHHHHHH     XHHHHHHHHHHHHHHHHHHHHHHHHHHHHHHHHX     HGGHGHHHHH",
"HHHHHHHGGH     HHHHHHHHHHHHHHHHHHHHHHHHHHHHHHHHHH     HGGHHHHHHH",
"HHHHHHGGHH.    HHHHHHHHHHHHHHHHHHHHHHHHHHHHHHHHHH    .HHHHHHHHHH",
"HHHHHHHHHHHGGGHHHHHHHHHHHHHHHHHHHHHHHHHHHHHHHHHHHHGGHHgoHHHHHHHH",
"HHHHHHHHHHHHHGHHHHHHHHHHHHHHHHHHHHHHHHHHHHHHHHHHHHGHHHoDHHHHHHHH",
"HHHHHHHHHHHHHHHHHHHHHHHHHoHHHHHHHHHHHHHHHHHHHHHHHHSGHHoHHHHHHHHH",
"HHHHHHHHHHHGGHHHHHHHHHHHHoHHHHHHHHHHHHHHHHHHHHHHHHhoGhoHHHHHHHHH",
"HHHHHHHHHHGHGHHHHHHHHHHoAoHHHHHHHHHHHHHHHHHHHHHHHHH+moHHHHHHHHHH",
"HHHHHHHHHHHHHHHHHHHHHHHoHfHHHHHHHHHHHHHHHHHHHHHHHHHHHHHHHHHHHHHH",
"HHHHHHHHHHHHHHHHHHHHHHHHHHHHHHHHHHHHHHHHHHHHHHHHHHHHHHHHHHHHHHHH",
"HHHHHHHHHHHHHHHHHHHHHHHHHHHHHHHHHHHHHHHHHHHHHHHHHHHHHHHHHHHHHHHH"
};
