/* XPM */
static char *_8eb32eb5e7f4a318b51c445586efe82SGaMY2vB3smDW9Nc[] = {
/* columns rows colors chars-per-pixel */
"64 64 48 1 ",
"  c #481B2B",
". c #491B2E",
"X c #4C1C2F",
"o c #4B1C30",
"O c #4F1C30",
"+ c #4E1E37",
"@ c #511D31",
"# c #551E36",
"$ c #295579",
"% c #2A577C",
"& c #2B5A7F",
"* c #A13D75",
"= c #A43E76",
"- c #A33F78",
"; c #2E6385",
": c #316487",
"> c #397292",
", c #3B7694",
"< c #9E5B8C",
"1 c #A04D82",
"2 c #40809D",
"3 c #4B8EA9",
"4 c #4C91AB",
"5 c #5195AF",
"6 c #579EB6",
"7 c #5EA7BC",
"8 c #62ACBF",
"9 c #62AFC1",
"0 c #65B0C3",
"q c #68B4C5",
"w c #74BCCB",
"e c #7FC1CD",
"r c #CF95B2",
"t c #D096B3",
"y c #D19AB6",
"u c #82C2CD",
"i c #88C4CD",
"p c #8CC6CF",
"a c #93C9CF",
"s c #93C9D0",
"d c #97CBD0",
"f c #9ACCD2",
"g c #9FCED3",
"h c #A2CFD3",
"j c #A1CFD4",
"k c #A3D0D4",
"l c #F7F5F5",
"z c #FFFFFE",
/* pixels */
"kkkkkkkkkkkkkkkkkkkkkkkkkkkkkkkkkkkkkkkkkkkkkkkkkkkkkkkkkkkkkkkk",
"kkkkkkkkkkkkkkkkkkkkkkkkkkkkkkkkkkkkkkkkkkkkkkkkkkkkkkkkkkkkkkkk",
"kkkkkkkkkkkkkkkkkkkkkkkkkkkkkkkkkkkkkkkkkkkkkkkkkkkkkkkkkkkkkkkk",
"kkkkkkkkkkkkkkk   .. khkkkkkkkkkkkkkkkkkkhk ..   kkkkkkkkkkkkkkk",
"kkkkkkkkkkkkkk.      . kkkkkkkkkkkkkkkkkk .      .kkkkkkkkkkkkkk",
"kkkkkkkkkkk$k  -y=yyy  .kkkkkkkkkkkkkkkk.  yyy=y<  kkkkkkkkkkkkk",
"kkkkkkkkkkkd  .=t==yyy=  kkkkkkkkkkkkkk  =yyy==t=.  kkkkkkkkkkkk",
"kkkkkkkkkkkk  ===yyy=yy   kk        kk   yy=yyy===  kkkkkkkkkkkk",
"kkkkkkkkkkkk  ====yy==yyy  .           yyy==yy====  kkkkkkkkkkkk",
"kkkkkkkkkkkk  ====y   ryy .yyyyyyyyyy. yyr   y====  kkkkkkkkkkkk",
"kkkkkkkkkkkk  -=1.     yy yyyyyyyyyyyy yy     .-==  kkkkkkk$wkkk",
"kkkkkkkkkkkk   .   kk   yyyyyyyyyyyyyyyy   kk   .   kkkkkkk$kkkk",
"kkkkkkkkkkkkk.    kk   yyy.yyyyyyyyyy.yyy   kk    .kkkk$kk$9kkkk",
"kkkkkkkkkkkkkkkkkkkk  yyy@ yyyyyyyyyy @yyy  kkkkkkkkkkk%4g$kkkkk",
"kkkkkkkkkkkkkkkkkkkk  yyyyyyyyyyyyyyyyyyyy  kkkkkkkkkkkkhkkk$kkk",
"kkkkkkkkkkkkkkkkkkkk  yyyyyyyyyyyyyyyyyyyy  kkkkkkkkkkkkkkkk0kkk",
"kkkkkkkkkkkkkkkkkkkk .yyyyyyyyyyyyyyyyyyyy  kkkkkkkkkkkkkkkkkkkk",
"kkkkkkkkkkkkkkkkkkkk  yyyyyyyyyyyyyyyyyyyy  kkkkkkkkkkkkkkkkkkkk",
"kkkkkkkkkkkkkkkkkkkk  yyyyyyyyyyyyyyyyyyyy  kkkkkkkkkkkkkkkkkkkk",
"kkkkkkkkkkkkkkkkkkkk  yyyyyyyyyyyyyyyyyyyy  kkkkkkkkkkkkkkkkkkkk",
"kkkkkkkkkkkkkkkkkkkk  yyyyyyyyyyyyyyyyyyyy  kkkkkkkkkkkkkkkkkkkk",
"kkkkkkkkkkkkkkkkkkkk  yy zzyyyyyyyyyy zzyy  kkkkkkkkkkkkkkkkkkkk",
"kkkkkkkkkkkkkkkkkkkk  yy zl yyyyyyyy  zzyy  kkkkkkkkkkkkkkkkkkkk",
"kkkkkkkkkkkkkkkkkkkk  yy     yyyyyy     yy  kkkkkkkkkkkkkkkkkkkk",
"kkkkkk$kkkkkkkkkkkkk  yy     yyyyyy     yy  kkkkkkkkkkkkkkhkkkkk",
"kkkkkk$kkkkkkkkkkkkk  yyy   .yyyyyy    yyy  kkkkkkkkkkkkkkfkkkkk",
"kkkkkk$kikkkkkkkkkkk  yyyy  +yyyyyy . yyyy  kkkkkkkkkkkkkkkkkkkk",
"kkkkkw$d$kkkkkkkkkkk   yyyyyyyyyyyyyyyyyy   kkkkkkkkkkkkkkkkkkkk",
"kkkkkffa5kkkkkkkkkkkk   yyyyyyyyyyyyyyyy.  kkkkkkkkkkkkkkkkkkkkk",
"kkkkkkkkkkkkkkkkkkkkkk  yyyyyyyyyyyyyyyy  kkkkkkkkkkkkkkkkkkkkkk",
"kkkkkkkkkkkkkkkkkkkkkk  yyyyyyyyyyyyyyyy. kkkkkkkkkkkkkkkkkkkkkk",
"kkkkkkkkkkkkkkkkkkkkkkkk  yyyyyyyyyyyyo aikkkkkkkgkkkkkkkkkkkkkk",
"kkkkkkkkkkkkkkkkkkkkkkkk   yyyyyyyyyy.. kkkkkkkkk:jkkkkkkkkkkkkk",
"kkkkkkkkkkkkkkkkkkkkkkkkkk .  yyyy    kkkkkkkkkkk$qkkkkkkkkkkkkk",
"kkkkkkkkkkkkkkkkkkkkkkkkkkk   yyyy   kkkkkkkkkkkkg$kk$kkkkkkkkkk",
"kkkkkkkkkkkkkkkkkkkkkkkkkkkkky    ykkkkkkkkkkkkkkk$k6>gkkkkkkkkk",
"kkkkkkkkkkkkkkkkkkkkkkkkkkk  y    y  kkkkkkkkkkkkk$k$kkkkkkkkkkk",
"kkkkkkkkkkkkkkkkkkkkkkkkkk  .yyyyyy   kkkkkkkkkkkkkkkkkkkkkkkkkk",
"kkkkkkkkkkkkkkkkkkkkkkkkkk  yyyyyyyy  kkkkkkkkkkkkkkkkkkkkkkkkkk",
"kkkkkkkkkkkkkkkkkkkkkkkkkk  yyyyyyyy  kkkkkkkkkkkkkkkkkkkkkkkkkk",
"kkkkkkkkkkkkkkkkkkkkkkkkkg  yyyyyyyy  kkkkkkkkkkkkkkkkkkkkkkkkkk",
"kkkkkkkkkkkkkkkkkkkkkkkkk  .yyyyyyyy   kkkkkkkkkkkkkkkkkkkkkkkkk",
"kkkkkkkkkkkkkkkkkkkkkkkkk.yyyy yy yyyy kkkkkkkkkkkkkkkkkkkkkkkkk",
"kkkkkkkkkk,pkkkkkkkkkkkkk yyyy yy yyyy kkkkkkkkkkkkkkkkkkkkkkkkk",
"kkkkkkkkkk3;kkkkkkkkkkkkk yyyy yy yyyy kkkkkkkkkkkkkkkkkkkkkkkkk",
"kkkkkkkkkkd$kkkkkkkkkkkkk ==yy yy yy== kkkkkkkkkkkkkkkkkkkkkkkkk",
"kkkkkkkkkkk$kkkkkkkkkkkk  =yyy yy yyy=. kkkkkkkkkkkkkkkkkkkkkkkk",
"kkkkkkkkkkk$k$kkkkkkkkkk   y== yy ==y   kkkkkkkkkkkkkkkkkkkkkkkk",
"kkkkkkkk2$k$k$kkkkkkkkkk . yyy yy yyy X khkkkkkkkkkkkkkkkkkkkkkk",
"kkkkkkkkk%ekkskkkkkkkkkk y *== yy === y hkkkkkkkkkkkkkkkkkkkkkkk",
"kkkkkkkkkkkkkkkkkkkkkkko yy == yy ==Oyy  kkkkkkkkkkkkkkkkkkkkkkk",
"kkkkkkkkkkkkkkkkkkkkkk  yyy    yy    yyy  kkkkkkkkkkkkkkkkkkkkkk",
"kkkkkkkkkkkkkkkkkkkkkk  yyyy #yyyy  yyyy  kkkkkkkkkkkkkkkkkkkkkk",
"kkkkkkkkkkkkkkkkkkkkkk  yyyyyyyyyyyyyyyy  kkkkkkkkkkkkkkkkkkkkkk",
"kkkkkkkkkkkkkkkkkkkkkk  yyyyyyyyyyyyyyyy  kkkkkkkkkkkkkkkkkkkkkk",
"kkkkkkkkkkkkkkkkkkkkkk  yyyyyyyyyyyyyyyy  kkkkkkkkkkkkkkkkkkkkkk",
"kkkkkkkkkkkkkkkkkkkkkk  yyyyyy   oyyyyyy  kkkkkkkkkkkk7$kkkkkkkk",
"kkkkkkkkkkkkkkkkkkkkkk  =yyyyy    yyyyy=  kkkkkkkkkkkk$fkkkkkkkk",
"kkkkkkkkkkkkkkkkkkkkkk  ==yy  hkkk  yy==  kkkkkkkkdhkk$kkkkkkkkk",
"kkkkkkkkkkkkkkkkkkkkkk  ====. hkkk  ====  kkkkkkkk8$k8$kkkkkkkkk",
"kkkkkkkkkkkkkkkkkkkkkk+      kkkkkk      hkkkkkkkkk&u$kkkkkkkkkk",
"kkkkkkkkkkkkkkkkkkkkkkk$    kkkkkkkk    kkkkkkkkkkkkkkkkkkkkkkkk",
"kkkkkkkkkkkkkkkkkkkkkkkkkkkkkkkkkkkkkkkkkkkkkkkkkkkkkkkkkkkkkkkk",
"kkkkkkkkkkkkkkkkkkkkkkkkkkkkkkkkkkkkkkkkkkkkkkkkkkkkkkkkkkkkkkkk"
};
